<svg fill="#B81005" id="Layer_1_1_" enable-background="new 0 0 64 64" height="60px" viewBox="0 0 64 64" width="60px"
    xmlns="http://www.w3.org/2000/svg">
    <path
        d="m16 32c0 8.822 7.178 16 16 16s16-7.178 16-16-7.178-16-16-16-16 7.178-16 16zm8.485-11.793 1.62 3.24c.097.193.254.351.447.447l3.034 1.517-2.152 3.589h-3.434c-.431 0-.812.275-.949.684l-.772 2.316h-4.279c0-4.953 2.593-9.304 6.485-11.793zm7.515 22.793v3c-4.906 0-9.223-2.541-11.723-6.371l4.543-1.514 3.58 2.685c.365.273.869.266 1.225-.019l4.301-3.441 2.074 2.074v1.805l-3.243.811c-.445.111-.757.511-.757.97zm14-11c0 2.206-.527 4.287-1.44 6.146l-2.273-2.273 1.545-2.318c.156-.234.207-.524.138-.797l-1-4c-.067-.27-.245-.5-.489-.634-.245-.135-.534-.16-.798-.072l-2.316.772-2.282-3.042.696-2.782h4.928c2.05 2.436 3.291 5.574 3.291 9zm-9-11c-.459 0-.859.312-.97.757l-1 4c-.073.292-.01.602.17.843l3 4c.258.344.708.485 1.116.349l1.976-.659.63 2.523-1.754 2.632c-.265.396-.212.925.125 1.262l3.228 3.228c-2.168 3.137-5.582 5.338-9.521 5.905v-2.06l3.243-.811c.445-.11.757-.51.757-.969v-3c0-.265-.105-.52-.293-.707l-3-3c-.36-.361-.934-.393-1.332-.074l-4.395 3.516-3.38-2.535c-.262-.198-.604-.252-.917-.149l-5.387 1.796c-.555-1.201-.941-2.492-1.137-3.847h4.841c.431 0 .812-.275.949-.684l.772-2.316h3.279c.351 0 .677-.184.857-.485l3-5c.144-.239.181-.527.103-.794s-.264-.49-.513-.615l-3.702-1.851-1.501-3.003c1.758-.797 3.703-1.252 5.756-1.252 3.257 0 6.251 1.128 8.632 3z">
    </path>
    <path
        d="m59 29c-1.302 0-2.402.839-2.816 2h-6.184v2h6.184c.414 1.161 1.514 2 2.816 2 1.654 0 3-1.346 3-3s-1.346-3-3-3zm0 4c-.551 0-1-.449-1-1s.449-1 1-1 1 .449 1 1-.449 1-1 1z">
    </path>
    <path
        d="m59 49c0-1.654-1.346-3-3-3-1.302 0-2.402.839-2.816 2h-1.507l-1.749-4.372c-.152-.379-.519-.628-.928-.628h-3v2h2.323l1.749 4.372c.152.379.519.628.928.628h2.184c.414 1.161 1.514 2 2.816 2 1.654 0 3-1.346 3-3zm-4 0c0-.551.449-1 1-1s1 .449 1 1-.449 1-1 1-1-.449-1-1z">
    </path>
    <path
        d="m48 61c1.654 0 3-1.346 3-3s-1.346-3-3-3c-1.302 0-2.402.839-2.816 2h-2.43l-1.793-6.275c-.122-.429-.515-.725-.961-.725h-5v2h4.246l1.793 6.275c.122.429.515.725.961.725h3.184c.414 1.161 1.514 2 2.816 2zm0-4c.551 0 1 .449 1 1s-.449 1-1 1-1-.449-1-1 .449-1 1-1z">
    </path>
    <path
        d="m39.895 13.447 2.723-5.447h2.554c.421 1.19 1.557 2 2.827 2 .149 0 .3-.011.452-.034.792-.121 1.49-.542 1.965-1.188s.67-1.438.55-2.229c-.249-1.635-1.779-2.759-3.417-2.516-.792.121-1.49.542-1.965 1.188-.177.241-.301.506-.399.779h-3.185c-.379 0-.725.214-.895.553l-2.723 5.447h-3.382v2h4c.379 0 .725-.214.895-.553zm7.299-7.04c.159-.215.391-.356.655-.396.051-.008.101-.011.151-.011.486 0 .914.355.989.85.04.264-.025.528-.183.743-.159.215-.391.356-.655.396-.538.085-1.056-.293-1.139-.839-.041-.264.024-.528.182-.743z">
    </path>
    <path
        d="m54.184 17c.414 1.161 1.514 2 2.816 2 1.654 0 3-1.346 3-3s-1.346-3-3-3c-1.302 0-2.402.839-2.816 2h-4.184c-.334 0-.646.167-.832.445l-1.703 2.555h-2.465v2h3c.334 0 .646-.167.832-.445l1.703-2.555zm2.816-2c.551 0 1 .449 1 1s-.449 1-1 1-1-.449-1-1 .449-1 1-1z">
    </path>
    <path
        d="m3 27c-.552 0-1 .448-1 1v8c0 .552.448 1 1 1h2.464c.25 1.328.604 2.646 1.058 3.937l-2.137 1.233c-.479.276-.642.888-.366 1.366l4 6.928c.276.478.885.642 1.366.366l2.141-1.236c.886 1.029 1.85 1.994 2.879 2.879l-1.236 2.141c-.276.479-.112 1.09.366 1.366l6.928 4c.477.275 1.089.111 1.366-.366l1.233-2.137c1.29.454 2.608.808 3.937 1.058v2.465c0 .552.448 1 1 1h4c.552 0 1-.448 1-1v-10c0-.552-.448-1-1-1-9.925 0-18-8.075-18-18s8.075-18 18-18c.552 0 1-.448 1-1v-10c0-.552-.448-1-1-1h-4c-.552 0-1 .448-1 1v2.464c-1.328.25-2.646.604-3.937 1.058l-1.232-2.137c-.277-.479-.889-.643-1.366-.366l-6.928 4c-.479.276-.642.888-.366 1.366l1.236 2.141c-1.029.886-1.994 1.85-2.879 2.879l-2.142-1.235c-.481-.276-1.09-.112-1.366.366l-4 6.928c-.276.478-.112 1.09.366 1.366l2.137 1.233c-.454 1.291-.808 2.609-1.058 3.937zm4.295 1.153c.271-1.75.738-3.491 1.39-5.172.178-.46-.005-.981-.433-1.228l-2-1.155 3-5.196 2.004 1.157c.427.246.969.144 1.278-.238 1.122-1.391 2.396-2.665 3.787-3.787.383-.309.484-.852.238-1.278l-1.157-2.004 5.196-3 1.155 2c.247.427.767.609 1.227.433 1.682-.652 3.422-1.119 5.172-1.39.488-.075.848-.495.848-.988v-2.307h2v8.025c-10.565.522-19 9.282-19 19.975s8.435 19.453 19 19.975v8.025h-2v-2.307c0-.493-.36-.913-.847-.988-1.75-.271-3.491-.738-5.172-1.39-.46-.177-.98.005-1.228.433l-1.155 2-5.196-3 1.157-2.004c.246-.427.145-.969-.238-1.278-1.391-1.122-2.665-2.396-3.787-3.787-.31-.384-.852-.485-1.278-.238l-2.004 1.157-3-5.196 2-1.155c.427-.247.611-.768.433-1.227-.652-1.682-1.119-3.422-1.39-5.172-.075-.488-.495-.848-.988-.848h-2.307v-6h2.307c.493 0 .913-.36.988-.847z">
    </path>
</svg>