<svg fill="#B81005" id="Layer_5" enable-background="new 0 0 62 62" height="60px" viewBox="0 0 62 62" width="60px"
    xmlns="http://www.w3.org/2000/svg">
    <g>
        <path d="m4 4h2v4h-2z"></path>
        <path d="m8 4h2v4h-2z"></path>
        <path d="m4 24h2v4h-2z"></path>
        <path d="m8 24h2v4h-2z"></path>
        <path d="m14 14h2v4h-2z"></path>
        <path d="m18 14h2v4h-2z"></path>
        <path d="m10 48h6v2h-6z"></path>
        <path d="m10 52h6v2h-6z"></path>
        <path d="m10 56h6v2h-6z"></path>
        <path d="m28 48h6v2h-6z"></path>
        <path d="m28 52h6v2h-6z"></path>
        <path d="m28 56h6v2h-6z"></path>
        <path d="m46 52h6v2h-6z"></path>
        <path d="m46 56h6v2h-6z"></path>
        <path
            d="m52.364 9.537-.18-.612-.631-.095c-2.525-.378-6.232-.83-9.553-.83s-7.028.452-9.553.831l-.631.095-.18.612c-.752 2.557-2.589 4.639-5.038 5.712l-.598.261v.925c0 11.263 5.326 22.091 14.247 28.967.5.385 1.123.597 1.753.597s1.252-.212 1.753-.597c8.921-6.876 14.247-17.704 14.247-28.966v-.925l-.599-.262c-2.448-1.074-4.285-3.156-5.037-5.713zm-9.831 34.281c-.302.231-.764.233-1.066 0-8.337-6.426-13.353-16.505-13.465-27.022 2.497-1.277 4.405-3.443 5.352-6.078 2.42-.346 5.704-.718 8.646-.718s6.226.372 8.646.719c.946 2.634 2.854 4.801 5.352 6.078-.112 10.516-5.128 20.596-13.465 27.021z">
        </path>
        <path
            d="m62 12h-1c-2.757 0-5-2.243-5-5 0-.177.01-.352.028-.524l.095-.91-.898-.175c-.291-.057-7.198-1.391-13.225-1.391s-12.934 1.334-13.225 1.391l-.898.175.095.91c.018.172.028.347.028.524 0 1.852-1.025 3.454-2.525 4.318-.077-.114-.158-.223-.25-.324.476-.531.775-1.226.775-1.994v-6c0-1.654-1.346-3-3-3h-20c-1.654 0-3 1.346-3 3v6c0 .771.301 1.468.78 2-.479.532-.78 1.229-.78 2v6c0 .771.301 1.468.78 2-.479.532-.78 1.229-.78 2v6c0 1.654 1.346 3 3 3h9v12h-6v18h14v-8h4v8h14v-8h4v8h14v-18h-4.823c6.862-7.441 10.823-17.339 10.823-27.563zm-60 7v-6c0-.551.449-1 1-1h19v4.437c0 1.194.071 2.381.177 3.563h-19.177c-.551 0-1-.449-1-1zm0-16c0-.551.449-1 1-1h20c.551 0 1 .449 1 1v6c0 .551-.449 1-1 1h-20c-.551 0-1-.449-1-1zm0 26v-6c0-.551.449-1 1-1h19.407c.33 2.345.865 4.649 1.593 6.889v.111c0 .551-.449 1-1 1h-20c-.551 0-1-.449-1-1zm16 31h-10v-14h10zm2-8v-8h-6v-12h9c.713 0 1.361-.261 1.876-.678 1.846 4.659 4.532 8.975 7.947 12.678h-8.823v8zm6 8v-14h8.814c.391.369.78.74 1.186 1.093v12.907zm12-8v-3.303c1.162.834 2.569 1.303 4 1.303v2zm16 8h-10v-10.315c.715-.218 1.39-.551 2-.989v1.304h6v-2h-5.108c.792-.639 1.557-1.306 2.294-2h4.814zm6-43.563c0 11.878-5.617 23.299-15.026 30.551-1.695 1.307-4.252 1.307-5.947 0-9.41-7.253-15.027-18.673-15.027-30.551v-2.508c3.323-.478 5.9-3.298 5.997-6.728 2.028-.354 7.367-1.201 12.003-1.201s9.975.847 12.003 1.201c.097 3.43 2.674 6.25 5.997 6.728z">
        </path>
        <path d="m37 31.586-2.293-2.293-1.414 1.414 3.707 3.707 15.707-15.707-1.414-1.414z"></path>
    </g>
</svg>